<?xml version="1.0" encoding="utf-8"?>
<!-- Generator: Adobe Illustrator 26.0.3, SVG Export Plug-In . SVG Version: 6.00 Build 0)  -->
<svg version="1.1" id="Слой_1" xmlns="http://www.w3.org/2000/svg" xmlns:xlink="http://www.w3.org/1999/xlink" x="0px" y="0px"
	 viewBox="0 0 200 200" style="enable-background:new 0 0 200 200;" xml:space="preserve">
<style type="text/css">
	.st0{clip-path:url(#SVGID_00000060018753839788175380000002629722187203509935_);}
	.st1{fill-rule:evenodd;clip-rule:evenodd;fill:url(#SVGID_00000142898649289762419510000004630531406929002686_);}
	.st2{fill-rule:evenodd;clip-rule:evenodd;fill:url(#SVGID_00000065775314740373997330000000554766771526089663_);}
	.st3{fill-rule:evenodd;clip-rule:evenodd;fill:url(#SVGID_00000121268616865587608210000015976868740118185128_);}
</style>
<g>
	<defs>
		<rect id="SVGID_1_" y="-1.2" width="200.7" height="201.2"/>
	</defs>
	<clipPath id="SVGID_00000039130184609507749930000002040766360951847563_">
		<use xlink:href="#SVGID_1_"  style="overflow:visible;"/>
	</clipPath>
	<g style="clip-path:url(#SVGID_00000039130184609507749930000002040766360951847563_);">
		
			<linearGradient id="SVGID_00000034807656994027223820000015039507213910681732_" gradientUnits="userSpaceOnUse" x1="-24.8152" y1="302.4803" x2="218.5813" y2="-9.0272" gradientTransform="matrix(1 0 0 -1 0 202)">
			<stop  offset="0" style="stop-color:#1A1A1A"/>
			<stop  offset="1" style="stop-color:#121212"/>
		</linearGradient>
		<path style="fill-rule:evenodd;clip-rule:evenodd;fill:url(#SVGID_00000034807656994027223820000015039507213910681732_);" d="
			M200,127.8C200,127.8,200,127.8,200,127.8C129.4,127.8,72.2,70.6,71.9,0h-24c0.3,83.9,68.2,151.9,152.1,151.9c0,0,0,0,0.1,0V127.8
			z"/>
		
			<linearGradient id="SVGID_00000126281496323881810930000015274248100746325183_" gradientUnits="userSpaceOnUse" x1="5.7724" y1="326.4255" x2="249.1689" y2="14.9181" gradientTransform="matrix(1 0 0 -1 0 202)">
			<stop  offset="0" style="stop-color:#1A1A1A"/>
			<stop  offset="1" style="stop-color:#121212"/>
		</linearGradient>
		<path style="fill-rule:evenodd;clip-rule:evenodd;fill:url(#SVGID_00000126281496323881810930000015274248100746325183_);" d="
			M200,79.7C200,79.7,200,79.7,200,79.7c-44.1,0-79.8-35.6-80.1-79.7h-24c0.3,57.3,46.7,103.8,104,103.8c0,0,0,0,0.1,0V79.7z"/>
		
			<linearGradient id="SVGID_00000044888840383666902120000009321578133279919233_" gradientUnits="userSpaceOnUse" x1="-55.3924" y1="278.5431" x2="188.0041" y2="-32.9644" gradientTransform="matrix(1 0 0 -1 0 202)">
			<stop  offset="0" style="stop-color:#1A1A1A"/>
			<stop  offset="1" style="stop-color:#121212"/>
		</linearGradient>
		<path style="fill-rule:evenodd;clip-rule:evenodd;fill:url(#SVGID_00000044888840383666902120000009321578133279919233_);" d="
			M200.1,175.9C200,175.9,200,175.9,200.1,175.9C102.9,175.9,24.2,97.2,23.9,0h-24C0.2,110.5,89.7,200,200,200c0,0,0.1,0,0.1,0
			V175.9z"/>
	</g>
</g>
</svg>
